<svg xmlns="http://www.w3.org/2000/svg" xmlns:xlink="http://www.w3.org/1999/xlink" width="500" zoomAndPan="magnify" viewBox="0 0 375 374.999991" height="500" preserveAspectRatio="xMidYMid meet" version="1.0"><defs><g/><clipPath id="bf978bedda"><path d="M 37.5 124.0625 L 337.5 124.0625 L 337.5 220.8125 L 37.5 220.8125 Z M 37.5 124.0625 " clip-rule="nonzero"/></clipPath></defs><g clip-path="url(#bf978bedda)"><path fill="#214e7e" d="M 37.902344 217.988281 L 337.097656 217.988281 L 337.097656 220.8125 L 37.902344 220.8125 Z M 127.988281 134.191406 L 126.828125 133.425781 L 125.636719 134.191406 L 79.832031 165.015625 L 80.390625 165.015625 L 79.800781 165.042969 L 79.832031 165.015625 L 37.554688 169.269531 L 80.402344 168.785156 L 80.960938 168.785156 L 81.445312 168.476562 L 126.828125 138.472656 L 136.421875 144.742188 L 142.234375 148.496094 L 145.621094 146.261719 Z M 337.445312 169.269531 L 294.597656 168.679688 L 294.085938 168.710938 L 293.601562 168.398438 L 248.191406 138.144531 L 232.667969 148.445312 L 229.449219 146.328125 L 247.207031 134.5 L 248.191406 133.820312 L 249.179688 134.5 L 295.160156 165.148438 Z M 295.304688 165.351562 L 295.585938 165.441406 L 295.554688 165.410156 Z M 225.164062 149.171875 L 217.261719 143.910156 L 217.261719 132.894531 L 211.148438 132.894531 L 211.148438 139.847656 L 208.914062 138.347656 L 187.492188 124.0625 L 166.078125 138.339844 L 149.847656 149.171875 L 146.605469 151.308594 L 123.230469 166.902344 L 133.867188 166.902344 L 187.492188 131.152344 L 241.113281 166.902344 L 251.75 166.902344 L 228.382812 151.308594 Z M 225.164062 149.171875 " fill-opacity="1" fill-rule="nonzero"/></g><g fill="#228b22" fill-opacity="1"><g transform="translate(16.62891, 205.660446)"><g><path d="M 11.875 0.390625 C 10.300781 0.390625 8.875 0.113281 7.59375 -0.4375 C 6.3125 -0.988281 5.203125 -1.75 4.265625 -2.71875 C 3.335938 -3.6875 2.625 -4.816406 2.125 -6.109375 C 1.625 -7.398438 1.375 -8.773438 1.375 -10.234375 C 1.375 -12.273438 1.828125 -14.085938 2.734375 -15.671875 C 3.648438 -17.265625 4.898438 -18.515625 6.484375 -19.421875 C 8.078125 -20.335938 9.90625 -20.796875 11.96875 -20.796875 C 13.507812 -20.796875 14.890625 -20.550781 16.109375 -20.0625 C 17.328125 -19.582031 18.507812 -18.828125 19.65625 -17.796875 L 17.8125 -15.390625 C 17.070312 -16.066406 16.238281 -16.597656 15.3125 -16.984375 C 14.382812 -17.378906 13.300781 -17.578125 12.0625 -17.578125 C 10.675781 -17.578125 9.453125 -17.257812 8.390625 -16.625 C 7.335938 -16 6.507812 -15.132812 5.90625 -14.03125 C 5.3125 -12.9375 5.015625 -11.671875 5.015625 -10.234375 C 5.015625 -8.847656 5.300781 -7.59375 5.875 -6.46875 C 6.457031 -5.351562 7.269531 -4.460938 8.3125 -3.796875 C 9.351562 -3.140625 10.5625 -2.8125 11.9375 -2.8125 C 13.238281 -2.8125 14.382812 -3.070312 15.375 -3.59375 C 16.363281 -4.113281 17.195312 -4.816406 17.875 -5.703125 L 20.09375 -3.421875 C 19.113281 -2.203125 17.929688 -1.257812 16.546875 -0.59375 C 15.171875 0.0625 13.613281 0.390625 11.875 0.390625 Z M 11.875 0.390625 "/></g></g></g><g fill="#228b22" fill-opacity="1"><g transform="translate(37.388891, 205.660446)"><g><path d="M 12 0.390625 C 10.4375 0.390625 9.003906 0.117188 7.703125 -0.421875 C 6.410156 -0.960938 5.289062 -1.71875 4.34375 -2.6875 C 3.40625 -3.65625 2.675781 -4.78125 2.15625 -6.0625 C 1.632812 -7.34375 1.375 -8.734375 1.375 -10.234375 C 1.375 -12.273438 1.820312 -14.085938 2.71875 -15.671875 C 3.625 -17.265625 4.875 -18.515625 6.46875 -19.421875 C 8.070312 -20.335938 9.914062 -20.796875 12 -20.796875 C 14.101562 -20.796875 15.953125 -20.335938 17.546875 -19.421875 C 19.148438 -18.515625 20.394531 -17.265625 21.28125 -15.671875 C 22.175781 -14.085938 22.625 -12.273438 22.625 -10.234375 C 22.625 -8.734375 22.367188 -7.34375 21.859375 -6.0625 C 21.347656 -4.78125 20.617188 -3.65625 19.671875 -2.6875 C 18.734375 -1.71875 17.613281 -0.960938 16.3125 -0.421875 C 15.019531 0.117188 13.582031 0.390625 12 0.390625 Z M 12 -2.8125 C 13.4375 -2.8125 14.679688 -3.140625 15.734375 -3.796875 C 16.785156 -4.460938 17.59375 -5.359375 18.15625 -6.484375 C 18.726562 -7.617188 19.015625 -8.867188 19.015625 -10.234375 C 19.015625 -11.648438 18.726562 -12.90625 18.15625 -14 C 17.59375 -15.101562 16.785156 -15.972656 15.734375 -16.609375 C 14.679688 -17.253906 13.4375 -17.578125 12 -17.578125 C 10.582031 -17.578125 9.347656 -17.253906 8.296875 -16.609375 C 7.242188 -15.972656 6.429688 -15.101562 5.859375 -14 C 5.296875 -12.90625 5.015625 -11.648438 5.015625 -10.234375 C 5.015625 -8.867188 5.296875 -7.617188 5.859375 -6.484375 C 6.429688 -5.359375 7.242188 -4.460938 8.296875 -3.796875 C 9.347656 -3.140625 10.582031 -2.8125 12 -2.8125 Z M 12 -2.8125 "/></g></g></g><g fill="#228b22" fill-opacity="1"><g transform="translate(61.388866, 205.660446)"><g><path d="M 21.359375 -20.546875 L 24.359375 0 L 20.875 0 L 19.265625 -11.046875 C 19.222656 -11.398438 19.179688 -11.742188 19.140625 -12.078125 C 19.097656 -12.421875 19.054688 -12.765625 19.015625 -13.109375 C 18.835938 -12.785156 18.648438 -12.460938 18.453125 -12.140625 C 18.253906 -11.828125 18.039062 -11.507812 17.8125 -11.1875 L 13.171875 -4.109375 L 12.453125 -4.109375 L 7.828125 -11.1875 C 7.390625 -11.832031 6.96875 -12.492188 6.5625 -13.171875 C 6.550781 -12.785156 6.519531 -12.414062 6.46875 -12.0625 C 6.414062 -11.71875 6.367188 -11.367188 6.328125 -11.015625 L 4.765625 0 L 1.296875 0 L 4.296875 -20.546875 L 5.34375 -20.546875 L 11.484375 -11.125 C 11.703125 -10.789062 11.925781 -10.441406 12.15625 -10.078125 C 12.394531 -9.722656 12.613281 -9.363281 12.8125 -9 C 13.03125 -9.363281 13.25 -9.722656 13.46875 -10.078125 C 13.6875 -10.441406 13.90625 -10.789062 14.125 -11.125 L 20.3125 -20.546875 Z M 21.359375 -20.546875 "/></g></g></g><g fill="#228b22" fill-opacity="1"><g transform="translate(87.008844, 205.660446)"><g><path d="M 2.484375 0 L 2.484375 -20.40625 L 10.3125 -20.40625 C 11.78125 -20.40625 13.019531 -20.085938 14.03125 -19.453125 C 15.050781 -18.828125 15.828125 -18.015625 16.359375 -17.015625 C 16.890625 -16.015625 17.15625 -14.953125 17.15625 -13.828125 C 17.15625 -12.734375 16.894531 -11.691406 16.375 -10.703125 C 15.851562 -9.722656 15.078125 -8.929688 14.046875 -8.328125 C 13.023438 -7.734375 11.765625 -7.4375 10.265625 -7.4375 L 6.03125 -7.4375 L 6.03125 0 Z M 6.03125 -10.46875 L 9.875 -10.46875 C 11.164062 -10.46875 12.109375 -10.816406 12.703125 -11.515625 C 13.296875 -12.210938 13.59375 -12.992188 13.59375 -13.859375 C 13.59375 -14.816406 13.265625 -15.628906 12.609375 -16.296875 C 11.960938 -16.972656 11.078125 -17.3125 9.953125 -17.3125 L 6.03125 -17.3125 Z M 6.03125 -10.46875 "/></g></g></g><g fill="#228b22" fill-opacity="1"><g transform="translate(104.94883, 205.660446)"><g><path d="M 6.75 -20.046875 L 8.671875 -20.046875 L 8.671875 0 L 5.1875 0 L 5.1875 -14.0625 C 5.1875 -14.289062 5.191406 -14.519531 5.203125 -14.75 C 5.210938 -14.976562 5.226562 -15.210938 5.25 -15.453125 C 5.144531 -15.367188 5.035156 -15.296875 4.921875 -15.234375 C 4.816406 -15.179688 4.695312 -15.113281 4.5625 -15.03125 L 1.859375 -13.46875 L 0.453125 -16.046875 Z M 6.75 -20.046875 "/></g></g></g><g fill="#228b22" fill-opacity="1"><g transform="translate(116.108822, 205.660446)"><g><path d="M 8.0625 -3.03125 L 13.59375 -3.03125 L 13.59375 0 L 0.9375 0 L 0.9375 -1.3125 L 7.953125 -10.734375 C 8.546875 -11.554688 8.972656 -12.25 9.234375 -12.8125 C 9.492188 -13.375 9.625 -13.90625 9.625 -14.40625 C 9.625 -15.164062 9.398438 -15.785156 8.953125 -16.265625 C 8.503906 -16.742188 7.878906 -16.984375 7.078125 -16.984375 C 6.335938 -16.984375 5.671875 -16.78125 5.078125 -16.375 C 4.492188 -15.976562 3.953125 -15.441406 3.453125 -14.765625 L 1.109375 -16.5625 C 1.867188 -17.695312 2.757812 -18.582031 3.78125 -19.21875 C 4.800781 -19.863281 5.988281 -20.1875 7.34375 -20.1875 C 8.550781 -20.1875 9.59375 -19.941406 10.46875 -19.453125 C 11.351562 -18.960938 12.03125 -18.304688 12.5 -17.484375 C 12.96875 -16.671875 13.203125 -15.765625 13.203125 -14.765625 C 13.203125 -14.117188 13.113281 -13.507812 12.9375 -12.9375 C 12.769531 -12.375 12.492188 -11.765625 12.109375 -11.109375 C 11.734375 -10.460938 11.207031 -9.695312 10.53125 -8.8125 L 7.296875 -4.46875 C 7.128906 -4.25 6.941406 -4.003906 6.734375 -3.734375 C 6.523438 -3.460938 6.3125 -3.21875 6.09375 -3 C 6.425781 -3.019531 6.773438 -3.03125 7.140625 -3.03125 C 7.503906 -3.03125 7.8125 -3.03125 8.0625 -3.03125 Z M 8.0625 -3.03125 "/></g></g></g><g fill="#228b22" fill-opacity="1"><g transform="translate(130.658805, 205.660446)"><g><path d="M 8.875 -12.359375 C 9.976562 -12.359375 10.988281 -12.125 11.90625 -11.65625 C 12.832031 -11.1875 13.570312 -10.5 14.125 -9.59375 C 14.6875 -8.695312 14.96875 -7.578125 14.96875 -6.234375 C 14.96875 -4.941406 14.6875 -3.796875 14.125 -2.796875 C 13.570312 -1.804688 12.796875 -1.03125 11.796875 -0.46875 C 10.804688 0.0820312 9.644531 0.359375 8.3125 0.359375 C 6.75 0.359375 5.457031 0.0078125 4.4375 -0.6875 C 3.414062 -1.382812 2.65625 -2.320312 2.15625 -3.5 C 1.65625 -4.6875 1.40625 -6 1.40625 -7.4375 L 1.40625 -7.765625 C 1.40625 -10.085938 1.789062 -12.144531 2.5625 -13.9375 C 3.332031 -15.726562 4.53125 -17.164062 6.15625 -18.25 C 7.789062 -19.34375 9.890625 -19.988281 12.453125 -20.1875 L 12.84375 -17.28125 C 10.539062 -17.101562 8.722656 -16.453125 7.390625 -15.328125 C 6.066406 -14.210938 5.242188 -12.742188 4.921875 -10.921875 C 5.441406 -11.441406 6.035156 -11.8125 6.703125 -12.03125 C 7.367188 -12.25 8.09375 -12.359375 8.875 -12.359375 Z M 8.25 -2.734375 C 9.1875 -2.734375 9.96875 -3.039062 10.59375 -3.65625 C 11.226562 -4.28125 11.546875 -5.113281 11.546875 -6.15625 C 11.546875 -7.269531 11.21875 -8.109375 10.5625 -8.671875 C 9.914062 -9.234375 9.144531 -9.515625 8.25 -9.515625 C 7.25 -9.515625 6.429688 -9.21875 5.796875 -8.625 C 5.171875 -8.03125 4.859375 -7.1875 4.859375 -6.09375 C 4.859375 -5.09375 5.171875 -4.28125 5.796875 -3.65625 C 6.429688 -3.039062 7.25 -2.734375 8.25 -2.734375 Z M 8.25 -2.734375 "/></g></g></g><g fill="#228b22" fill-opacity="1"><g transform="translate(146.678793, 205.660446)"><g/></g></g><g fill="#228b22" fill-opacity="1"><g transform="translate(153.428781, 205.660446)"><g><path d="M 7.59375 0.359375 C 6.226562 0.359375 5.070312 0.125 4.125 -0.34375 C 3.175781 -0.8125 2.460938 -1.429688 1.984375 -2.203125 C 1.503906 -2.972656 1.265625 -3.816406 1.265625 -4.734375 C 1.265625 -5.921875 1.597656 -7.035156 2.265625 -8.078125 C 2.929688 -9.128906 3.945312 -10.066406 5.3125 -10.890625 C 4.632812 -11.671875 4.097656 -12.445312 3.703125 -13.21875 C 3.316406 -13.988281 3.125 -14.769531 3.125 -15.5625 C 3.125 -16.507812 3.363281 -17.375 3.84375 -18.15625 C 4.320312 -18.945312 4.992188 -19.578125 5.859375 -20.046875 C 6.734375 -20.523438 7.769531 -20.765625 8.96875 -20.765625 C 10.007812 -20.765625 10.914062 -20.550781 11.6875 -20.125 C 12.457031 -19.707031 13.054688 -19.148438 13.484375 -18.453125 C 13.910156 -17.753906 14.125 -16.972656 14.125 -16.109375 C 14.125 -14.847656 13.679688 -13.765625 12.796875 -12.859375 C 11.921875 -11.960938 10.84375 -11.132812 9.5625 -10.375 L 13.5 -6.359375 C 13.863281 -7.054688 14.144531 -7.789062 14.34375 -8.5625 C 14.539062 -9.332031 14.648438 -10.039062 14.671875 -10.6875 L 17.703125 -10.6875 C 17.679688 -9.625 17.488281 -8.507812 17.125 -7.34375 C 16.769531 -6.1875 16.257812 -5.109375 15.59375 -4.109375 L 19.140625 -0.328125 L 16.078125 0.359375 L 13.765625 -2.09375 C 13.023438 -1.414062 12.125 -0.835938 11.0625 -0.359375 C 10.007812 0.117188 8.851562 0.359375 7.59375 0.359375 Z M 7.765625 -12.484375 C 8.648438 -12.960938 9.414062 -13.46875 10.0625 -14 C 10.71875 -14.53125 11.046875 -15.191406 11.046875 -15.984375 C 11.046875 -16.484375 10.847656 -16.925781 10.453125 -17.3125 C 10.066406 -17.707031 9.515625 -17.90625 8.796875 -17.90625 C 7.972656 -17.90625 7.34375 -17.671875 6.90625 -17.203125 C 6.476562 -16.734375 6.265625 -16.1875 6.265625 -15.5625 C 6.265625 -15.050781 6.390625 -14.550781 6.640625 -14.0625 C 6.890625 -13.582031 7.265625 -13.054688 7.765625 -12.484375 Z M 7.734375 -2.546875 C 8.578125 -2.546875 9.332031 -2.71875 10 -3.0625 C 10.675781 -3.414062 11.253906 -3.828125 11.734375 -4.296875 L 7.296875 -8.796875 C 6.367188 -8.296875 5.695312 -7.707031 5.28125 -7.03125 C 4.863281 -6.363281 4.65625 -5.707031 4.65625 -5.0625 C 4.65625 -4.40625 4.921875 -3.820312 5.453125 -3.3125 C 5.992188 -2.800781 6.753906 -2.546875 7.734375 -2.546875 Z M 7.734375 -2.546875 "/></g></g></g><g fill="#228b22" fill-opacity="1"><g transform="translate(172.538765, 205.660446)"><g/></g></g><g fill="#228b22" fill-opacity="1"><g transform="translate(179.288753, 205.660446)"><g><path d="M 10.859375 -20.515625 L 20.453125 -0.09375 L 20.453125 0 L 16.765625 0 L 15.09375 -3.6875 L 5.546875 -3.6875 L 3.875 0 L 0.15625 0 L 0.15625 -0.0625 L 9.78125 -20.515625 Z M 10.3125 -14.8125 C 10.070312 -14.15625 9.84375 -13.550781 9.625 -13 C 9.40625 -12.457031 9.175781 -11.90625 8.9375 -11.34375 L 6.71875 -6.484375 L 13.921875 -6.484375 L 11.703125 -11.34375 C 11.460938 -11.882812 11.234375 -12.429688 11.015625 -12.984375 C 10.796875 -13.546875 10.5625 -14.15625 10.3125 -14.8125 Z M 10.3125 -14.8125 "/></g></g></g><g fill="#228b22" fill-opacity="1"><g transform="translate(199.898736, 205.660446)"><g><path d="M 8.765625 0.390625 C 7.359375 0.390625 6.007812 0.175781 4.71875 -0.25 C 3.4375 -0.6875 2.296875 -1.300781 1.296875 -2.09375 L 2.9375 -4.859375 C 3.695312 -4.203125 4.570312 -3.6875 5.5625 -3.3125 C 6.550781 -2.945312 7.578125 -2.765625 8.640625 -2.765625 C 9.660156 -2.765625 10.550781 -2.992188 11.3125 -3.453125 C 12.070312 -3.910156 12.453125 -4.585938 12.453125 -5.484375 C 12.453125 -6.128906 12.242188 -6.660156 11.828125 -7.078125 C 11.421875 -7.492188 10.878906 -7.851562 10.203125 -8.15625 C 9.535156 -8.457031 8.816406 -8.726562 8.046875 -8.96875 C 6.898438 -9.351562 5.863281 -9.816406 4.9375 -10.359375 C 4.019531 -10.910156 3.289062 -11.582031 2.75 -12.375 C 2.21875 -13.164062 1.953125 -14.101562 1.953125 -15.1875 C 1.953125 -16.382812 2.257812 -17.398438 2.875 -18.234375 C 3.5 -19.078125 4.332031 -19.710938 5.375 -20.140625 C 6.414062 -20.578125 7.546875 -20.796875 8.765625 -20.796875 C 9.941406 -20.796875 11.054688 -20.640625 12.109375 -20.328125 C 13.171875 -20.015625 14.265625 -19.476562 15.390625 -18.71875 L 13.859375 -16.078125 C 12.992188 -16.640625 12.164062 -17.046875 11.375 -17.296875 C 10.59375 -17.546875 9.78125 -17.671875 8.9375 -17.671875 C 8.039062 -17.671875 7.25 -17.472656 6.5625 -17.078125 C 5.882812 -16.691406 5.546875 -16.117188 5.546875 -15.359375 C 5.546875 -14.742188 5.742188 -14.226562 6.140625 -13.8125 C 6.546875 -13.40625 7.066406 -13.0625 7.703125 -12.78125 C 8.347656 -12.5 9.019531 -12.238281 9.71875 -12 C 10.894531 -11.625 11.957031 -11.164062 12.90625 -10.625 C 13.863281 -10.082031 14.617188 -9.410156 15.171875 -8.609375 C 15.734375 -7.804688 16.015625 -6.828125 16.015625 -5.671875 C 16.015625 -4.390625 15.6875 -3.296875 15.03125 -2.390625 C 14.382812 -1.492188 13.515625 -0.804688 12.421875 -0.328125 C 11.335938 0.148438 10.117188 0.390625 8.765625 0.390625 Z M 8.765625 0.390625 "/></g></g></g><g fill="#228b22" fill-opacity="1"><g transform="translate(217.058704, 205.660446)"><g><path d="M 8.765625 0.390625 C 7.359375 0.390625 6.007812 0.175781 4.71875 -0.25 C 3.4375 -0.6875 2.296875 -1.300781 1.296875 -2.09375 L 2.9375 -4.859375 C 3.695312 -4.203125 4.570312 -3.6875 5.5625 -3.3125 C 6.550781 -2.945312 7.578125 -2.765625 8.640625 -2.765625 C 9.660156 -2.765625 10.550781 -2.992188 11.3125 -3.453125 C 12.070312 -3.910156 12.453125 -4.585938 12.453125 -5.484375 C 12.453125 -6.128906 12.242188 -6.660156 11.828125 -7.078125 C 11.421875 -7.492188 10.878906 -7.851562 10.203125 -8.15625 C 9.535156 -8.457031 8.816406 -8.726562 8.046875 -8.96875 C 6.898438 -9.351562 5.863281 -9.816406 4.9375 -10.359375 C 4.019531 -10.910156 3.289062 -11.582031 2.75 -12.375 C 2.21875 -13.164062 1.953125 -14.101562 1.953125 -15.1875 C 1.953125 -16.382812 2.257812 -17.398438 2.875 -18.234375 C 3.5 -19.078125 4.332031 -19.710938 5.375 -20.140625 C 6.414062 -20.578125 7.546875 -20.796875 8.765625 -20.796875 C 9.941406 -20.796875 11.054688 -20.640625 12.109375 -20.328125 C 13.171875 -20.015625 14.265625 -19.476562 15.390625 -18.71875 L 13.859375 -16.078125 C 12.992188 -16.640625 12.164062 -17.046875 11.375 -17.296875 C 10.59375 -17.546875 9.78125 -17.671875 8.9375 -17.671875 C 8.039062 -17.671875 7.25 -17.472656 6.5625 -17.078125 C 5.882812 -16.691406 5.546875 -16.117188 5.546875 -15.359375 C 5.546875 -14.742188 5.742188 -14.226562 6.140625 -13.8125 C 6.546875 -13.40625 7.066406 -13.0625 7.703125 -12.78125 C 8.347656 -12.5 9.019531 -12.238281 9.71875 -12 C 10.894531 -11.625 11.957031 -11.164062 12.90625 -10.625 C 13.863281 -10.082031 14.617188 -9.410156 15.171875 -8.609375 C 15.734375 -7.804688 16.015625 -6.828125 16.015625 -5.671875 C 16.015625 -4.390625 15.6875 -3.296875 15.03125 -2.390625 C 14.382812 -1.492188 13.515625 -0.804688 12.421875 -0.328125 C 11.335938 0.148438 10.117188 0.390625 8.765625 0.390625 Z M 8.765625 0.390625 "/></g></g></g><g fill="#228b22" fill-opacity="1"><g transform="translate(234.218684, 205.660446)"><g><path d="M 12 0.390625 C 10.4375 0.390625 9.003906 0.117188 7.703125 -0.421875 C 6.410156 -0.960938 5.289062 -1.71875 4.34375 -2.6875 C 3.40625 -3.65625 2.675781 -4.78125 2.15625 -6.0625 C 1.632812 -7.34375 1.375 -8.734375 1.375 -10.234375 C 1.375 -12.273438 1.820312 -14.085938 2.71875 -15.671875 C 3.625 -17.265625 4.875 -18.515625 6.46875 -19.421875 C 8.070312 -20.335938 9.914062 -20.796875 12 -20.796875 C 14.101562 -20.796875 15.953125 -20.335938 17.546875 -19.421875 C 19.148438 -18.515625 20.394531 -17.265625 21.28125 -15.671875 C 22.175781 -14.085938 22.625 -12.273438 22.625 -10.234375 C 22.625 -8.734375 22.367188 -7.34375 21.859375 -6.0625 C 21.347656 -4.78125 20.617188 -3.65625 19.671875 -2.6875 C 18.734375 -1.71875 17.613281 -0.960938 16.3125 -0.421875 C 15.019531 0.117188 13.582031 0.390625 12 0.390625 Z M 12 -2.8125 C 13.4375 -2.8125 14.679688 -3.140625 15.734375 -3.796875 C 16.785156 -4.460938 17.59375 -5.359375 18.15625 -6.484375 C 18.726562 -7.617188 19.015625 -8.867188 19.015625 -10.234375 C 19.015625 -11.648438 18.726562 -12.90625 18.15625 -14 C 17.59375 -15.101562 16.785156 -15.972656 15.734375 -16.609375 C 14.679688 -17.253906 13.4375 -17.578125 12 -17.578125 C 10.582031 -17.578125 9.347656 -17.253906 8.296875 -16.609375 C 7.242188 -15.972656 6.429688 -15.101562 5.859375 -14 C 5.296875 -12.90625 5.015625 -11.648438 5.015625 -10.234375 C 5.015625 -8.867188 5.296875 -7.617188 5.859375 -6.484375 C 6.429688 -5.359375 7.242188 -4.460938 8.296875 -3.796875 C 9.347656 -3.140625 10.582031 -2.8125 12 -2.8125 Z M 12 -2.8125 "/></g></g></g><g fill="#228b22" fill-opacity="1"><g transform="translate(258.218659, 205.660446)"><g><path d="M 11.875 0.390625 C 10.300781 0.390625 8.875 0.113281 7.59375 -0.4375 C 6.3125 -0.988281 5.203125 -1.75 4.265625 -2.71875 C 3.335938 -3.6875 2.625 -4.816406 2.125 -6.109375 C 1.625 -7.398438 1.375 -8.773438 1.375 -10.234375 C 1.375 -12.273438 1.828125 -14.085938 2.734375 -15.671875 C 3.648438 -17.265625 4.898438 -18.515625 6.484375 -19.421875 C 8.078125 -20.335938 9.90625 -20.796875 11.96875 -20.796875 C 13.507812 -20.796875 14.890625 -20.550781 16.109375 -20.0625 C 17.328125 -19.582031 18.507812 -18.828125 19.65625 -17.796875 L 17.8125 -15.390625 C 17.070312 -16.066406 16.238281 -16.597656 15.3125 -16.984375 C 14.382812 -17.378906 13.300781 -17.578125 12.0625 -17.578125 C 10.675781 -17.578125 9.453125 -17.257812 8.390625 -16.625 C 7.335938 -16 6.507812 -15.132812 5.90625 -14.03125 C 5.3125 -12.9375 5.015625 -11.671875 5.015625 -10.234375 C 5.015625 -8.847656 5.300781 -7.59375 5.875 -6.46875 C 6.457031 -5.351562 7.269531 -4.460938 8.3125 -3.796875 C 9.351562 -3.140625 10.5625 -2.8125 11.9375 -2.8125 C 13.238281 -2.8125 14.382812 -3.070312 15.375 -3.59375 C 16.363281 -4.113281 17.195312 -4.816406 17.875 -5.703125 L 20.09375 -3.421875 C 19.113281 -2.203125 17.929688 -1.257812 16.546875 -0.59375 C 15.171875 0.0625 13.613281 0.390625 11.875 0.390625 Z M 11.875 0.390625 "/></g></g></g><g fill="#228b22" fill-opacity="1"><g transform="translate(278.978652, 205.660446)"><g><path d="M 2.484375 0 L 2.484375 -20.40625 L 6.03125 -20.40625 L 6.03125 0 Z M 2.484375 0 "/></g></g></g><g fill="#228b22" fill-opacity="1"><g transform="translate(287.498641, 205.660446)"><g><path d="M 10.859375 -20.515625 L 20.453125 -0.09375 L 20.453125 0 L 16.765625 0 L 15.09375 -3.6875 L 5.546875 -3.6875 L 3.875 0 L 0.15625 0 L 0.15625 -0.0625 L 9.78125 -20.515625 Z M 10.3125 -14.8125 C 10.070312 -14.15625 9.84375 -13.550781 9.625 -13 C 9.40625 -12.457031 9.175781 -11.90625 8.9375 -11.34375 L 6.71875 -6.484375 L 13.921875 -6.484375 L 11.703125 -11.34375 C 11.460938 -11.882812 11.234375 -12.429688 11.015625 -12.984375 C 10.796875 -13.546875 10.5625 -14.15625 10.3125 -14.8125 Z M 10.3125 -14.8125 "/></g></g></g><g fill="#228b22" fill-opacity="1"><g transform="translate(308.108625, 205.660446)"><g><path d="M 15.65625 -20.40625 L 15.65625 -17.125 L 9.90625 -17.125 L 9.90625 0 L 6.359375 0 L 6.359375 -17.125 L 0.5625 -17.125 L 0.5625 -20.40625 Z M 15.65625 -20.40625 "/></g></g></g><g fill="#228b22" fill-opacity="1"><g transform="translate(324.368618, 205.660446)"><g><path d="M 6.03125 -3.125 L 15.59375 -3.125 L 15.59375 0 L 2.484375 0 L 2.484375 -20.40625 L 15.328125 -20.40625 L 15.328125 -17.28125 L 6.03125 -17.28125 L 6.03125 -11.875 L 14.15625 -11.875 L 14.15625 -8.84375 L 6.03125 -8.84375 Z M 6.03125 -3.125 "/></g></g></g><g fill="#228b22" fill-opacity="1"><g transform="translate(341.198596, 205.660446)"><g><path d="M 8.765625 0.390625 C 7.359375 0.390625 6.007812 0.175781 4.71875 -0.25 C 3.4375 -0.6875 2.296875 -1.300781 1.296875 -2.09375 L 2.9375 -4.859375 C 3.695312 -4.203125 4.570312 -3.6875 5.5625 -3.3125 C 6.550781 -2.945312 7.578125 -2.765625 8.640625 -2.765625 C 9.660156 -2.765625 10.550781 -2.992188 11.3125 -3.453125 C 12.070312 -3.910156 12.453125 -4.585938 12.453125 -5.484375 C 12.453125 -6.128906 12.242188 -6.660156 11.828125 -7.078125 C 11.421875 -7.492188 10.878906 -7.851562 10.203125 -8.15625 C 9.535156 -8.457031 8.816406 -8.726562 8.046875 -8.96875 C 6.898438 -9.351562 5.863281 -9.816406 4.9375 -10.359375 C 4.019531 -10.910156 3.289062 -11.582031 2.75 -12.375 C 2.21875 -13.164062 1.953125 -14.101562 1.953125 -15.1875 C 1.953125 -16.382812 2.257812 -17.398438 2.875 -18.234375 C 3.5 -19.078125 4.332031 -19.710938 5.375 -20.140625 C 6.414062 -20.578125 7.546875 -20.796875 8.765625 -20.796875 C 9.941406 -20.796875 11.054688 -20.640625 12.109375 -20.328125 C 13.171875 -20.015625 14.265625 -19.476562 15.390625 -18.71875 L 13.859375 -16.078125 C 12.992188 -16.640625 12.164062 -17.046875 11.375 -17.296875 C 10.59375 -17.546875 9.78125 -17.671875 8.9375 -17.671875 C 8.039062 -17.671875 7.25 -17.472656 6.5625 -17.078125 C 5.882812 -16.691406 5.546875 -16.117188 5.546875 -15.359375 C 5.546875 -14.742188 5.742188 -14.226562 6.140625 -13.8125 C 6.546875 -13.40625 7.066406 -13.0625 7.703125 -12.78125 C 8.347656 -12.5 9.019531 -12.238281 9.71875 -12 C 10.894531 -11.625 11.957031 -11.164062 12.90625 -10.625 C 13.863281 -10.082031 14.617188 -9.410156 15.171875 -8.609375 C 15.734375 -7.804688 16.015625 -6.828125 16.015625 -5.671875 C 16.015625 -4.390625 15.6875 -3.296875 15.03125 -2.390625 C 14.382812 -1.492188 13.515625 -0.804688 12.421875 -0.328125 C 11.335938 0.148438 10.117188 0.390625 8.765625 0.390625 Z M 8.765625 0.390625 "/></g></g></g><g fill="#228b22" fill-opacity="1"><g transform="translate(110.042183, 245.730584)"><g><path d="M 3.3125 -1.203125 L 10.296875 -1.203125 L 10.296875 0 L 2 0 L 2 -13.59375 L 10.125 -13.59375 L 10.125 -12.40625 L 3.3125 -12.40625 L 3.3125 -7.5625 L 9.296875 -7.5625 L 9.296875 -6.375 L 3.3125 -6.375 Z M 3.3125 -1.203125 "/></g></g></g><g fill="#228b22" fill-opacity="1"><g transform="translate(121.317773, 245.730584)"><g><path d="M 5.8125 0.234375 C 4.894531 0.234375 4.03125 0.0859375 3.21875 -0.203125 C 2.414062 -0.503906 1.722656 -0.90625 1.140625 -1.40625 L 1.8125 -2.4375 C 2.320312 -1.988281 2.921875 -1.632812 3.609375 -1.375 C 4.304688 -1.113281 5.039062 -0.984375 5.8125 -0.984375 C 6.394531 -0.984375 6.925781 -1.078125 7.40625 -1.265625 C 7.882812 -1.460938 8.269531 -1.75 8.5625 -2.125 C 8.851562 -2.507812 9 -2.96875 9 -3.5 C 9 -4.0625 8.84375 -4.519531 8.53125 -4.875 C 8.226562 -5.238281 7.820312 -5.539062 7.3125 -5.78125 C 6.8125 -6.03125 6.257812 -6.253906 5.65625 -6.453125 C 4.988281 -6.691406 4.335938 -6.972656 3.703125 -7.296875 C 3.078125 -7.628906 2.554688 -8.046875 2.140625 -8.546875 C 1.722656 -9.046875 1.515625 -9.675781 1.515625 -10.4375 C 1.515625 -11.15625 1.707031 -11.769531 2.09375 -12.28125 C 2.488281 -12.789062 3 -13.175781 3.625 -13.4375 C 4.257812 -13.707031 4.945312 -13.84375 5.6875 -13.84375 C 6.4375 -13.84375 7.144531 -13.734375 7.8125 -13.515625 C 8.476562 -13.304688 9.140625 -12.960938 9.796875 -12.484375 L 9.203125 -11.484375 C 8.128906 -12.242188 6.972656 -12.625 5.734375 -12.625 C 5.253906 -12.625 4.796875 -12.546875 4.359375 -12.390625 C 3.921875 -12.234375 3.5625 -12 3.28125 -11.6875 C 3 -11.375 2.859375 -10.976562 2.859375 -10.5 C 2.859375 -9.957031 3.015625 -9.507812 3.328125 -9.15625 C 3.648438 -8.8125 4.0625 -8.523438 4.5625 -8.296875 C 5.0625 -8.066406 5.585938 -7.851562 6.140625 -7.65625 C 6.890625 -7.394531 7.578125 -7.09375 8.203125 -6.75 C 8.835938 -6.40625 9.347656 -5.976562 9.734375 -5.46875 C 10.117188 -4.96875 10.3125 -4.332031 10.3125 -3.5625 C 10.3125 -2.769531 10.113281 -2.085938 9.71875 -1.515625 C 9.320312 -0.941406 8.78125 -0.503906 8.09375 -0.203125 C 7.414062 0.0859375 6.65625 0.234375 5.8125 0.234375 Z M 5.8125 0.234375 "/></g></g></g><g fill="#228b22" fill-opacity="1"><g transform="translate(132.753306, 245.730584)"><g><path d="M 10.140625 -13.59375 L 10.140625 -12.40625 L 5.953125 -12.40625 L 5.953125 0 L 4.640625 0 L 4.640625 -12.40625 L 0.453125 -12.40625 L 0.453125 -13.59375 Z M 10.140625 -13.59375 "/></g></g></g><g fill="#228b22" fill-opacity="1"><g transform="translate(143.449128, 245.730584)"><g><path d="M 7.046875 -13.703125 L 13.359375 -0.046875 L 13.359375 0 L 11.984375 0 L 10.546875 -3.125 L 3.09375 -3.125 L 1.65625 0 L 0.28125 0 L 0.28125 -0.046875 L 6.59375 -13.703125 Z M 6.8125 -11.375 C 6.6875 -11.070312 6.566406 -10.769531 6.453125 -10.46875 C 6.335938 -10.164062 6.207031 -9.863281 6.0625 -9.5625 L 3.640625 -4.3125 L 9.984375 -4.3125 L 7.578125 -9.5625 C 7.441406 -9.851562 7.3125 -10.148438 7.1875 -10.453125 C 7.0625 -10.753906 6.9375 -11.0625 6.8125 -11.375 Z M 6.8125 -11.375 "/></g></g></g><g fill="#228b22" fill-opacity="1"><g transform="translate(157.183742, 245.730584)"><g><path d="M 10.140625 -13.59375 L 10.140625 -12.40625 L 5.953125 -12.40625 L 5.953125 0 L 4.640625 0 L 4.640625 -12.40625 L 0.453125 -12.40625 L 0.453125 -13.59375 Z M 10.140625 -13.59375 "/></g></g></g><g fill="#228b22" fill-opacity="1"><g transform="translate(167.879561, 245.730584)"><g><path d="M 3.3125 -1.203125 L 10.296875 -1.203125 L 10.296875 0 L 2 0 L 2 -13.59375 L 10.125 -13.59375 L 10.125 -12.40625 L 3.3125 -12.40625 L 3.3125 -7.5625 L 9.296875 -7.5625 L 9.296875 -6.375 L 3.3125 -6.375 Z M 3.3125 -1.203125 "/></g></g></g><g fill="#228b22" fill-opacity="1"><g transform="translate(179.155149, 245.730584)"><g><path d="M 5.8125 0.234375 C 4.894531 0.234375 4.03125 0.0859375 3.21875 -0.203125 C 2.414062 -0.503906 1.722656 -0.90625 1.140625 -1.40625 L 1.8125 -2.4375 C 2.320312 -1.988281 2.921875 -1.632812 3.609375 -1.375 C 4.304688 -1.113281 5.039062 -0.984375 5.8125 -0.984375 C 6.394531 -0.984375 6.925781 -1.078125 7.40625 -1.265625 C 7.882812 -1.460938 8.269531 -1.75 8.5625 -2.125 C 8.851562 -2.507812 9 -2.96875 9 -3.5 C 9 -4.0625 8.84375 -4.519531 8.53125 -4.875 C 8.226562 -5.238281 7.820312 -5.539062 7.3125 -5.78125 C 6.8125 -6.03125 6.257812 -6.253906 5.65625 -6.453125 C 4.988281 -6.691406 4.335938 -6.972656 3.703125 -7.296875 C 3.078125 -7.628906 2.554688 -8.046875 2.140625 -8.546875 C 1.722656 -9.046875 1.515625 -9.675781 1.515625 -10.4375 C 1.515625 -11.15625 1.707031 -11.769531 2.09375 -12.28125 C 2.488281 -12.789062 3 -13.175781 3.625 -13.4375 C 4.257812 -13.707031 4.945312 -13.84375 5.6875 -13.84375 C 6.4375 -13.84375 7.144531 -13.734375 7.8125 -13.515625 C 8.476562 -13.304688 9.140625 -12.960938 9.796875 -12.484375 L 9.203125 -11.484375 C 8.128906 -12.242188 6.972656 -12.625 5.734375 -12.625 C 5.253906 -12.625 4.796875 -12.546875 4.359375 -12.390625 C 3.921875 -12.234375 3.5625 -12 3.28125 -11.6875 C 3 -11.375 2.859375 -10.976562 2.859375 -10.5 C 2.859375 -9.957031 3.015625 -9.507812 3.328125 -9.15625 C 3.648438 -8.8125 4.0625 -8.523438 4.5625 -8.296875 C 5.0625 -8.066406 5.585938 -7.851562 6.140625 -7.65625 C 6.890625 -7.394531 7.578125 -7.09375 8.203125 -6.75 C 8.835938 -6.40625 9.347656 -5.976562 9.734375 -5.46875 C 10.117188 -4.96875 10.3125 -4.332031 10.3125 -3.5625 C 10.3125 -2.769531 10.113281 -2.085938 9.71875 -1.515625 C 9.320312 -0.941406 8.78125 -0.503906 8.09375 -0.203125 C 7.414062 0.0859375 6.65625 0.234375 5.8125 0.234375 Z M 5.8125 0.234375 "/></g></g></g><g fill="#228b22" fill-opacity="1"><g transform="translate(190.59068, 245.730584)"><g/></g></g><g fill="#228b22" fill-opacity="1"><g transform="translate(195.248883, 245.730584)"><g><path d="M 8.015625 -7.21875 L 13.578125 -7.21875 L 13.578125 -2.40625 C 12.960938 -1.550781 12.1875 -0.894531 11.25 -0.4375 C 10.3125 0.0078125 9.269531 0.234375 8.125 0.234375 C 7.101562 0.234375 6.164062 0.0625 5.3125 -0.28125 C 4.46875 -0.632812 3.734375 -1.128906 3.109375 -1.765625 C 2.492188 -2.410156 2.007812 -3.160156 1.65625 -4.015625 C 1.3125 -4.867188 1.140625 -5.800781 1.140625 -6.8125 C 1.140625 -7.78125 1.296875 -8.6875 1.609375 -9.53125 C 1.929688 -10.382812 2.394531 -11.128906 3 -11.765625 C 3.613281 -12.410156 4.34375 -12.914062 5.1875 -13.28125 C 6.03125 -13.65625 6.984375 -13.84375 8.046875 -13.84375 C 9.078125 -13.84375 10.023438 -13.640625 10.890625 -13.234375 C 11.765625 -12.828125 12.535156 -12.25 13.203125 -11.5 L 12.34375 -10.6875 C 11.769531 -11.3125 11.125 -11.789062 10.40625 -12.125 C 9.695312 -12.457031 8.910156 -12.625 8.046875 -12.625 C 6.910156 -12.625 5.921875 -12.363281 5.078125 -11.84375 C 4.234375 -11.332031 3.582031 -10.640625 3.125 -9.765625 C 2.675781 -8.890625 2.453125 -7.90625 2.453125 -6.8125 C 2.453125 -5.695312 2.691406 -4.695312 3.171875 -3.8125 C 3.660156 -2.9375 4.332031 -2.242188 5.1875 -1.734375 C 6.050781 -1.234375 7.0625 -0.984375 8.21875 -0.984375 C 9.0625 -0.984375 9.832031 -1.132812 10.53125 -1.4375 C 11.226562 -1.75 11.820312 -2.195312 12.3125 -2.78125 L 12.3125 -6.015625 L 8.015625 -6.015625 Z M 8.015625 -7.21875 "/></g></g></g><g fill="#228b22" fill-opacity="1"><g transform="translate(210.063081, 245.730584)"><g><path d="M 7.859375 -5.703125 L 11.734375 -0.0625 L 11.734375 0 L 10.21875 0 L 6.40625 -5.640625 L 3.3125 -5.640625 L 3.3125 0 L 2 0 L 2 -13.59375 L 7.140625 -13.59375 C 7.953125 -13.59375 8.679688 -13.414062 9.328125 -13.0625 C 9.984375 -12.71875 10.503906 -12.242188 10.890625 -11.640625 C 11.285156 -11.035156 11.484375 -10.351562 11.484375 -9.59375 C 11.484375 -8.582031 11.15625 -7.722656 10.5 -7.015625 C 9.84375 -6.304688 8.960938 -5.867188 7.859375 -5.703125 Z M 3.3125 -6.84375 L 7.078125 -6.84375 C 8.023438 -6.84375 8.773438 -7.09375 9.328125 -7.59375 C 9.878906 -8.101562 10.15625 -8.765625 10.15625 -9.578125 C 10.15625 -10.109375 10.03125 -10.582031 9.78125 -11 C 9.53125 -11.425781 9.175781 -11.765625 8.71875 -12.015625 C 8.269531 -12.273438 7.742188 -12.40625 7.140625 -12.40625 L 3.3125 -12.40625 Z M 3.3125 -6.84375 "/></g></g></g><g fill="#228b22" fill-opacity="1"><g transform="translate(222.658151, 245.730584)"><g><path d="M 8.015625 0.234375 C 7.015625 0.234375 6.09375 0.0507812 5.25 -0.3125 C 4.414062 -0.675781 3.691406 -1.179688 3.078125 -1.828125 C 2.460938 -2.472656 1.984375 -3.222656 1.640625 -4.078125 C 1.304688 -4.929688 1.140625 -5.84375 1.140625 -6.8125 C 1.140625 -7.832031 1.304688 -8.769531 1.640625 -9.625 C 1.984375 -10.476562 2.460938 -11.21875 3.078125 -11.84375 C 3.691406 -12.476562 4.414062 -12.96875 5.25 -13.3125 C 6.09375 -13.664062 7.015625 -13.84375 8.015625 -13.84375 C 9.378906 -13.84375 10.582031 -13.535156 11.625 -12.921875 C 12.664062 -12.316406 13.472656 -11.484375 14.046875 -10.421875 C 14.628906 -9.367188 14.921875 -8.164062 14.921875 -6.8125 C 14.921875 -5.84375 14.753906 -4.929688 14.421875 -4.078125 C 14.085938 -3.222656 13.613281 -2.472656 13 -1.828125 C 12.382812 -1.179688 11.65625 -0.675781 10.8125 -0.3125 C 9.976562 0.0507812 9.046875 0.234375 8.015625 0.234375 Z M 8.015625 -0.984375 C 9.140625 -0.984375 10.117188 -1.242188 10.953125 -1.765625 C 11.785156 -2.296875 12.429688 -3.003906 12.890625 -3.890625 C 13.359375 -4.773438 13.59375 -5.75 13.59375 -6.8125 C 13.59375 -7.9375 13.359375 -8.9375 12.890625 -9.8125 C 12.429688 -10.6875 11.785156 -11.375 10.953125 -11.875 C 10.117188 -12.375 9.140625 -12.625 8.015625 -12.625 C 6.921875 -12.625 5.953125 -12.375 5.109375 -11.875 C 4.273438 -11.375 3.625 -10.6875 3.15625 -9.8125 C 2.6875 -8.9375 2.453125 -7.9375 2.453125 -6.8125 C 2.453125 -5.75 2.6875 -4.773438 3.15625 -3.890625 C 3.625 -3.003906 4.273438 -2.296875 5.109375 -1.765625 C 5.953125 -1.242188 6.921875 -0.984375 8.015625 -0.984375 Z M 8.015625 -0.984375 "/></g></g></g><g fill="#228b22" fill-opacity="1"><g transform="translate(238.811817, 245.730584)"><g><path d="M 7.0625 0.234375 C 6.101562 0.234375 5.222656 0.0507812 4.421875 -0.3125 C 3.628906 -0.6875 3 -1.238281 2.53125 -1.96875 C 2.070312 -2.695312 1.84375 -3.59375 1.84375 -4.65625 L 1.84375 -13.59375 L 3.15625 -13.59375 L 3.15625 -4.6875 C 3.15625 -3.425781 3.519531 -2.488281 4.25 -1.875 C 4.976562 -1.257812 5.914062 -0.953125 7.0625 -0.953125 C 8.195312 -0.953125 9.125 -1.257812 9.84375 -1.875 C 10.5625 -2.488281 10.921875 -3.425781 10.921875 -4.6875 L 10.921875 -13.59375 L 12.234375 -13.59375 L 12.234375 -4.65625 C 12.234375 -3.59375 12 -2.695312 11.53125 -1.96875 C 11.070312 -1.238281 10.445312 -0.6875 9.65625 -0.3125 C 8.875 0.0507812 8.007812 0.234375 7.0625 0.234375 Z M 7.0625 0.234375 "/></g></g></g><g fill="#228b22" fill-opacity="1"><g transform="translate(252.986262, 245.730584)"><g><path d="M 2 0 L 2 -13.59375 L 7.015625 -13.59375 C 7.960938 -13.59375 8.753906 -13.382812 9.390625 -12.96875 C 10.023438 -12.550781 10.5 -12.019531 10.8125 -11.375 C 11.132812 -10.738281 11.296875 -10.097656 11.296875 -9.453125 C 11.296875 -8.828125 11.140625 -8.203125 10.828125 -7.578125 C 10.515625 -6.960938 10.035156 -6.453125 9.390625 -6.046875 C 8.753906 -5.648438 7.9375 -5.453125 6.9375 -5.453125 L 3.3125 -5.453125 L 3.3125 0 Z M 3.3125 -6.65625 L 6.921875 -6.65625 C 7.609375 -6.65625 8.175781 -6.789062 8.625 -7.0625 C 9.082031 -7.34375 9.421875 -7.695312 9.640625 -8.125 C 9.867188 -8.5625 9.984375 -9.015625 9.984375 -9.484375 C 9.984375 -10.003906 9.859375 -10.484375 9.609375 -10.921875 C 9.359375 -11.367188 9.007812 -11.726562 8.5625 -12 C 8.125 -12.269531 7.601562 -12.40625 7 -12.40625 L 3.3125 -12.40625 Z M 3.3125 -6.65625 "/></g></g></g></svg>